<?xml version="1.0" encoding="utf-8"?>
<!-- Generator: Adobe Illustrator 28.0.0, SVG Export Plug-In . SVG Version: 6.00 Build 0)  -->
<svg version="1.1" id="Layer_1" xmlns="http://www.w3.org/2000/svg" xmlns:xlink="http://www.w3.org/1999/xlink" x="0px" y="0px"
	 viewBox="0 0 100 100" style="enable-background:new 0 0 100 100;" xml:space="preserve">
<style type="text/css">
	.st0{fill:url(#SVGID_1_);}
	.st1{fill:#0A9E93;}
	.st2{fill:#F9F7F7;}
</style>
<linearGradient id="SVGID_1_" gradientUnits="userSpaceOnUse" x1="18" y1="48" x2="76" y2="48">
	<stop  offset="0" style="stop-color:#E800E9"/>
	<stop  offset="0.5005" style="stop-color:#3FECFF"/>
</linearGradient>
<circle class="st0" cx="47" cy="48" r="29"/>
<path class="st1" d="M46,48c-0.53,0.29-1.33,0.72-2.34,1.21c0,0-2.04,1.02-4.11,1.9c-8.95,3.82-15.56,6.65-18.95,4.08
	c-3.65-2.76-5.17-12.98,1.18-15.8c3.53-1.56,8.74-0.51,13.48,2.62"/>
<path class="st1" d="M46,48c0.5-0.37,1.27-0.92,2.23-1.58c0,0,1.96-1.33,3.98-2.54c8.72-5.19,15.16-9.02,19.31-6.84
	c4.47,2.36,8.25,12.74,2.09,16.53c-3.43,2.11-9.2,1.73-14.9-0.86"/>
<path class="st1" d="M46,48c-0.28-0.55-0.7-1.39-1.18-2.43c0,0-0.99-2.12-1.84-4.26c-3.68-9.25-6.41-16.09-3.72-19.43
	c2.9-3.6,13.36-4.71,16.08,1.86c1.51,3.65,0.32,8.91-2.99,13.59"/>
<path class="st1" d="M46,48c0.4,0.48,1.01,1.23,1.73,2.15c0,0,1.46,1.89,2.8,3.83c5.76,8.39,10.03,14.6,8.1,18.47
	c-2.08,4.17-12.25,7.47-16.44,1.53c-2.33-3.3-2.33-8.76-0.09-14.09"/>
<g>
	<g>
		<g>
			<path class="st2" d="M24.66,38.45h2.85l2.27,11.79c0.42,2.33,0.85,4.65,1.27,6.98h0.13c0.48-2.33,1-4.67,1.52-6.98l3.01-11.79
				h2.5l3.01,11.79c0.52,2.29,1.04,4.64,1.56,6.98h0.13c0.42-2.34,0.81-4.68,1.23-6.98l2.27-11.79h2.66l-4.48,21.66h-3.32
				l-3.28-13.02c-0.37-1.69-0.72-3.27-1.04-4.93h-0.13c-0.34,1.67-0.71,3.24-1.08,4.93l-3.21,13.02h-3.27L24.66,38.45z"/>
			<path class="st2" d="M56.66,48.92l-5.9-10.47h3.04l2.95,5.54c0.55,0.99,1.01,1.89,1.69,3.15h0.13c0.59-1.26,1.01-2.16,1.53-3.15
				l2.88-5.54h2.9l-5.9,10.61l6.31,11.05h-3.04l-3.18-5.83c-0.57-1.08-1.16-2.16-1.85-3.48H58.1c-0.63,1.32-1.17,2.4-1.72,3.48
				l-3.13,5.83h-2.9L56.66,48.92z"/>
		</g>
	</g>
</g>
</svg>
